Coordinates
version=1
nRows=10
nColumns=40
inDegrees=yes

Units are S.I. units (second, meters, Newtons, ...)
Angles are in degrees.

endheader
time	pelvis_tilt	pelvis_list	pelvis_rotation	pelvis_tx	pelvis_ty	pelvis_tz	hip_flexion_r	hip_adduction_r	hip_rotation_r	knee_angle_r	knee_angle_r_beta	ankle_angle_r	subtalar_angle_r	mtp_angle_r	hip_flexion_l	hip_adduction_l	hip_rotation_l	knee_angle_l	knee_angle_l_beta	ankle_angle_l	subtalar_angle_l	mtp_angle_l	lumbar_extension	lumbar_bending	lumbar_rotation	arm_flex_r	arm_add_r	arm_rot_r	elbow_flex_r	pro_sup_r	wrist_flex_r	wrist_dev_r	arm_flex_l	arm_add_l	arm_rot_l	elbow_flex_l	pro_sup_l	wrist_flex_l	wrist_dev_l
     56.87000000	     -2.21400256	     -4.25158450	      3.71057322	      0.94647812	      0.92097187	      0.55661552	     14.94724975	      4.29276773	     -9.63964534	     26.24299593	     26.24299593	     14.84024155	    -10.53117062	     -1.53714365	     23.92404023	    -13.12094265	      4.08406307	     67.23395153	     67.23395153	     -0.70492780	    -18.96218049	     12.47530099	     -9.76548698	      5.32087943	      0.76427256	     14.86102519	    -16.41501681	    -10.54424038	     36.03172931	     46.00146449	      0.00000000	      0.00000000	     17.58306806	     -9.12997676	     -2.74769076	     34.33053699	     45.55967894	      0.00000000	      0.00000000
     56.88828571	     -2.16464085	     -4.41198773	      4.32965789	      0.94446981	      0.91902198	      0.55846892	     15.13915396	      4.57946083	     -9.76625841	     27.12462890	     27.12462890	     15.33322352	    -11.51354696	     -1.54797310	     25.36180964	    -13.55182759	      3.98759610	     67.92778831	     67.92778831	      0.90427665	    -19.18115242	     13.09553434	     -9.87914124	      5.25837787	      0.35241406	     17.03352062	    -16.22459812	    -10.69015046	     37.78331470	     45.95402957	      0.00000000	      0.00000000	     15.42819462	     -8.94205974	     -2.41373113	     32.61292996	     45.49419147	      0.00000000	      0.00000000
     56.90657143	     -1.91661009	     -4.49030548	      4.92944742	      0.94259145	      0.91767557	      0.56025722	     14.87681536	      4.78739106	    -10.05496422	     27.60020227	     27.60020227	     15.78924308	    -12.00943105	     -1.65888619	     26.41971654	    -13.92489841	      3.76482374	     68.19449695	     68.19449695	      2.33290043	    -19.34568408	     12.93940239	    -10.29180406	      5.03210549	      1.10531229	     18.72882061	    -16.72445267	    -10.80249227	     38.65572273	     45.93847309	      0.00000000	      0.00000000	     13.57591468	     -8.29104192	     -2.25571566	     31.76230649	     45.44546154	      0.00000000	      0.00000000
     56.92485714	     -1.95284957	     -4.65504119	      5.58612135	      0.94017133	      0.91570062	      0.56178399	     15.29774885	      5.12751680	     -9.91829170	     28.68749334	     28.68749334	     16.54155335	    -13.42885646	     -0.41581957	     28.15002888	    -14.07360362	      3.91466451	     68.66550101	     68.66550101	      5.74138457	    -19.37044382	     18.91229900	    -10.43391259	      5.11432002	      0.25875103	     20.54671220	    -16.52618324	    -10.68156597	     43.48897535	     45.75327382	      0.00000000	      0.00000000	     11.67210396	     -8.35353954	     -0.72228389	     28.69106304	     45.24453352	      0.00000000	      0.00000000
     56.94314286	     -1.94599068	     -4.71486564	      6.21889273	      0.93792476	      0.91425531	      0.56309397	     15.38822684	      5.27109139	    -10.14592325	     29.28289929	     29.28289929	     16.99452849	    -14.11511892	     -0.25506310	     29.42697346	    -14.24742555	      3.73654143	     68.21376209	     68.21376209	      7.25950412	    -19.45254172	     19.20634425	    -10.59811575	      4.98658529	     -0.06144443	     22.80163682	    -16.48670933	    -10.78169262	     45.60362262	     45.69189764	      0.00000000	      0.00000000	      9.55028904	     -8.15485868	     -0.20489642	     27.23672279	     45.14383817	      0.00000000	      0.00000000
     56.96142857	     -1.92564896	     -4.75480003	      6.85372433	      0.93564265	      0.91333585	      0.56406320	     15.30285200	      5.40463138	    -10.36263266	     29.56728655	     29.56728655	     17.39808610	    -14.68780250	      0.10092024	     30.56343014	    -14.27958572	      3.58355630	     67.21737564	     67.21737564	      8.84674059	    -19.49860248	     19.96341726	    -10.82739154	      4.88725949	     -0.24098730	     24.96728293	    -16.57589455	    -10.81687789	     47.96757499	     45.61870945	      0.00000000	      0.00000000	      7.54211717	     -7.93586304	      0.43097377	     25.92884062	     45.02091544	      0.00000000	      0.00000000
     56.97971429	     -2.00796274	     -4.76577227	      7.47451254	      0.93325708	      0.91282665	      0.56462074	     15.21537428	      5.45341062	    -10.66293147	     29.64150858	     29.64150858	     17.80766716	    -14.99415634	      0.70234788	     31.65187376	    -14.12616979	      3.45628759	     65.62162246	     65.62162246	     10.42091837	    -19.51721004	     21.08661566	    -10.94972016	      4.77741670	     -0.12851279	     26.76784788	    -17.02092621	    -10.72363123	     50.80955371	     45.52278176	      0.00000000	      0.00000000	      5.69329793	     -7.70118921	      1.50170064	     24.96469794	     44.82394340	      0.00000000	      0.00000000
     56.99800000	     -2.14113137	     -4.70274054	      8.04244920	      0.93077173	      0.91278373	      0.56477371	     15.04859785	      5.38859913	    -10.97527847	     29.47088215	     29.47088215	     17.99894246	    -15.16054371	      0.80857042	     32.53472186	    -13.80076119	      3.25218855	     63.34139968	     63.34139968	     11.44803698	    -19.51726483	     21.02472528	    -11.04035996	      4.58962267	      0.34677840	     28.94289296	    -17.77464217	    -10.90728721	     52.14359674	     45.49598801	      0.00000000	      0.00000000	      4.05557109	     -7.30581179	      1.76092359	     24.34495217	     44.75253772	      0.00000000	      0.00000000
     57.01628571	     -2.28059744	     -4.56740916	      8.64883838	      0.92832066	      0.91344592	      0.56448562	     14.68670193	      5.23617365	    -11.34287105	     28.95699561	     28.95699561	     18.08869997	    -15.20376869	      1.07157001	     33.14190059	    -13.20606979	      3.15667281	     60.35010741	     60.35010741	     12.25445457	    -19.48404981	     20.98485927	    -11.11949489	      4.39182740	      0.04069695	     31.30947135	    -17.83424224	    -10.90591252	     54.60616496	     45.42154465	      0.00000000	      0.00000000	      2.10734594	     -7.15660334	      2.30992834	     23.61490009	     44.62185734	      0.00000000	      0.00000000
     57.03457143	     -2.62314553	     -4.46412738	      9.23651611	      0.92566047	      0.91420058	      0.56384306	     14.47862927	      5.03885298	    -11.84033401	     28.30254457	     28.30254457	     18.17441632	    -14.97988312	      1.43630246	     33.74582121	    -12.48204224	      3.16151506	     56.76857097	     56.76857097	     12.39519825	    -19.42930162	     19.72883215	    -11.06465230	      4.27182992	      0.78022957	     32.36116099	    -19.15784855	    -10.80975831	     59.02902080	     45.33619659	      0.00000000	      0.00000000	     -0.12969120	     -8.37226707	     13.11298212	     25.46427961	     42.97606356	      0.00000000	      0.00000000
